# xmcd CD database file
#
# Track frame offsets:
#	150
#	24000
#	42640
#	66452
#
# Disc length: 1130 seconds
#
# Revision: 0
# Processed by: cddbd v1.5.1PL2 Copyright (c) Steve Scherf et al.
# Submitted via: CDex 1.51
#
DISCID=30046804
DTITLE=19 - あの青をこえて
DYEAR=1900
DGENRE=J-POP
TTITLE0=あの青をこえて
TTITLE1=西暦前進2000年→
TTITLE2=あの青をこえて(ミュージック・トラック)
TTITLE3=西暦前進2000年→(ミュージック・トラック)
EXTD=
EXTT0=
EXTT1=
EXTT2=
EXTT3=
PLAYORDER=
